PathFileType	4	(X/Y/Z)	OpenSim_Sub11_EMGPreOp_Gyro.trc
DataRate	CameraRate	NumFrames	NumMarkers	Units	OrigDataRate	OrigDataStartFrame	OrigNumFrames
100	100	30	8	m	100	1472	5885
Frame#	Time	torso_imu_offset_imu	pelvis_imu_offset_imu	tibia_r_imu_offset_imu	femur_r_imu_offset_imu	tibia_l_imu_offset_imu	femur_l_imu_offset_imu	toes_r_imu_offset_imu	toes_l_imu_offset_imu
				X1	Y1	Z1	X2	Y2	Z2	X3	Y3	Z3	X4	Y4	Z4	X5	Y5	Z5	X6	Y6	Z6	X7	Y7	Z7	X8		Y8	Z8	

1472	14.71000000	0.13587950	-0.18202311	0.06594378	0.21076568	0.07987494	-0.21274627	-0.15354202	-0.06537541	-0.35318959	-0.12907354	-0.14045035	-0.22105856	2.06619847	0.04218369	-3.02772954	0.65215426	0.08550412	-0.31488000	0.06481198	-0.04647181	-0.04480848	1.45019487	3.44267265	-0.43840892
1473	14.72000000	0.16099734	-0.17978558	0.06829434	0.23272838	0.08533650	-0.19169255	-0.12274204	-0.05590858	-0.35009389	-0.18019111	-0.12841016	-0.24121111	2.07931528	-0.11345463	-3.18875815	0.59567379	-0.00182804	-0.24568946	0.09014059	-0.03400910	-0.05210931	1.49284020	3.48760074	-0.63430660
1474	14.73000000	0.17238084	-0.17251110	0.07167585	0.23472683	0.08496886	-0.16492686	-0.11543247	-0.05071007	-0.32354825	-0.19942717	-0.11118420	-0.26210490	1.69838663	-0.23511975	-3.37226776	0.50859793	-0.08074864	-0.16729461	0.09082797	-0.04016676	-0.06392446	1.59344389	3.43280770	-0.75052667
1475	14.74000000	0.17698685	-0.16516278	0.08473562	0.23761540	0.07699767	-0.13875097	-0.08391113	-0.04959517	-0.29336286	-0.21700331	-0.09566064	-0.29377188	0.90565159	-0.27472440	-3.48065965	0.39676893	-0.13929104	-0.08591066	0.12076204	-0.01420118	-0.06789528	1.53521881	3.29332036	-0.85570848
1476	14.75000000	0.18212886	-0.14852075	0.08354218	0.22972649	0.07899475	-0.11222263	-0.01018987	-0.03102320	-0.28818315	-0.21992977	-0.07333834	-0.32543426	0.09502459	-0.31005832	-3.50975565	0.27267376	-0.18817957	-0.00326289	0.08843157	-0.00707560	-0.06675076	1.37527546	3.12563267	-1.03809129
1477	14.76000000	0.18161439	-0.14880595	0.07961080	0.22922482	0.08509388	-0.08343129	0.03227479	-0.01776289	-0.29036391	-0.19862077	-0.05548977	-0.35672016	-0.69943833	-0.34651372	-3.48382335	0.13480742	-0.25370782	0.10180544	0.10675563	-0.00614988	-0.06110514	1.09805140	3.01107649	-1.35337279
1478	14.77000000	0.15944136	-0.14984282	0.07414133	0.22807255	0.09548287	-0.05853706	0.03991712	-0.02445469	-0.26110203	-0.15377004	-0.03865813	-0.37787001	-1.50985308	-0.36088059	-3.39976767	-0.01680996	-0.31602307	0.21887026	0.09205977	0.00160767	-0.06311999	0.84763421	2.82462463	-1.77634596
1479	14.78000000	0.13120819	-0.14031895	0.06809346	0.22065110	0.09344031	-0.03892797	0.07923179	-0.02420374	-0.23282433	-0.09999242	-0.03023071	-0.39362580	-2.09842255	-0.35306514	-3.29871402	-0.18530600	-0.36243623	0.33724884	0.09994306	0.00235817	-0.05804704	0.55222975	2.56965156	-2.20373198
1480	14.79000000	0.10811422	-0.12145166	0.05871515	0.21142299	0.07718714	-0.01782609	0.16704882	-0.00050953	-0.24608250	-0.03143587	-0.01935940	-0.39734618	-2.34354873	-0.34454519	-3.22875575	-0.36487059	-0.38300118	0.43566665	0.06388975	0.00524236	-0.04984488	0.20803119	2.32232108	-2.54688506
1481	14.80000000	0.09321265	-0.10148007	0.05833158	0.19545842	0.06330080	0.00649127	0.19863996	0.01647624	-0.27039022	0.05906917	-0.00624667	-0.39362173	-2.48902484	-0.28949746	-3.17912651	-0.52776777	-0.38478097	0.50001785	0.08479259	-0.00129648	-0.04688544	-0.24440787	2.16470652	-2.80741477
1482	14.81000000	0.09234871	-0.07588662	0.05035604	0.16801407	0.04655289	0.02606812	0.19259285	0.00934684	-0.29303533	0.14970014	0.00861595	-0.38205067	-2.59890961	-0.15890642	-3.10088310	-0.57248910	-0.37894353	0.55906040	0.06527224	0.01311278	-0.04383644	-0.47925961	2.12469846	-2.99444067
1483	14.82000000	0.09580082	-0.05075760	0.04469163	0.15595421	0.03272381	0.04789027	0.19723065	0.00554925	-0.31679139	0.23961378	0.02367524	-0.37428545	-2.60889759	-0.04083219	-3.00964906	-0.49039424	-0.39102293	0.63903041	0.04648693	-0.00938330	-0.03841653	-0.54028253	2.28180644	-3.00984665
1484	14.83000000	0.06758154	-0.05236415	0.03816088	0.14422650	0.02470786	0.06544099	0.19832495	0.01198801	-0.33583671	0.31673232	0.03653120	-0.36953592	-2.49834457	0.07841662	-2.92871317	-0.35850021	-0.42909272	0.73139923	0.05625385	0.01153817	-0.03395808	-0.66530658	2.28484376	-2.80749269
1485	14.84000000	0.05873989	-0.05695785	0.03737502	0.12136786	0.01367219	0.07635617	0.17614620	0.01671323	-0.32686125	0.37494899	0.04961805	-0.37289270	-2.16991950	0.18928828	-2.82519086	-0.21013014	-0.48026886	0.81488282	0.05574257	-0.01274607	-0.03478900	-0.53219205	2.14560194	-2.46577470
1486	14.85000000	0.04368162	-0.04724839	0.03207521	0.09549862	0.00352975	0.07973387	0.18407463	0.01915611	-0.33226412	0.40597223	0.05384089	-0.37712515	-1.76343338	0.25971617	-2.70698180	-0.00449377	-0.54046843	0.89075677	0.05049160	0.00853228	-0.03650540	-0.21915007	2.18970201	-2.06915911
1487	14.86000000	0.04039925	-0.03726464	0.03355816	0.08178840	-0.00186981	0.08058397	0.21989652	0.03408950	-0.37302727	0.40453267	0.04565504	-0.38193177	-1.45995831	0.30845132	-2.53621323	0.22841091	-0.60237634	0.94264825	0.03930147	0.00205301	-0.03692869	-0.30796637	2.03187661	-1.68476489
1488	14.87000000	0.02866955	-0.01842019	0.02719501	0.07105202	-0.00401270	0.07412829	0.22611906	0.03902961	-0.41813364	0.37091194	0.03430497	-0.38819008	-1.14247540	0.26609009	-2.29751969	0.42935238	-0.63545513	0.93101268	0.04311276	0.00124597	-0.03861632	-0.32300654	1.82517996	-1.35520066
1489	14.88000000	0.00564046	-0.00283795	0.01945312	0.07283181	-0.00921016	0.07105082	0.17698403	0.02264829	-0.42102381	0.30687538	0.01600653	-0.39166856	-0.79126242	0.14562330	-2.03698075	0.59927264	-0.63973281	0.85350699	0.04453311	-0.00261097	-0.04352307	-0.32108909	1.56884187	-1.10629800
1490	14.89000000	-0.00827187	0.01558994	0.01428036	0.08613231	-0.01809679	0.06602257	0.16282710	0.02147607	-0.41538786	0.21565588	-0.00003698	-0.40035180	-0.56429462	0.05137222	-1.74279822	0.76168478	-0.60776718	0.73811200	0.05049683	0.00500788	-0.04151663	-0.15446647	1.30101389	-0.93771295
1491	14.90000000	-0.00485438	0.03167042	0.00795705	0.10173387	-0.03039897	0.05164978	0.19398923	0.03959648	-0.43901786	0.11055018	-0.01098585	-0.40527962	-0.44944071	-0.03272411	-1.38810408	0.85853006	-0.55032941	0.60252659	0.03406459	-0.00007684	-0.04236100	-0.01034954	0.99816725	-0.83107659
1492	14.91000000	0.00624274	0.04878071	0.00263401	0.13303770	-0.03793290	0.03497807	0.18516893	0.05450586	-0.46793842	0.01222702	-0.02153691	-0.41652990	-0.39299185	-0.14384349	-0.97899905	0.87826062	-0.49460409	0.47005768	0.05925342	-0.00745075	-0.04561056	0.07497498	0.65593935	-0.75476352
1493	14.92000000	0.03903832	0.06349525	0.00021456	0.15976708	-0.03937796	0.02540399	0.13645736	0.04910908	-0.49372912	-0.09022846	-0.02402173	-0.41961808	-0.35180915	-0.25480342	-0.55664314	0.83053668	-0.45827444	0.35638988	0.04158630	-0.00118804	-0.04187444	0.00550305	0.29934744	-0.71079649
1494	14.93000000	0.07539663	0.07756169	0.00180175	0.18418282	-0.04367052	0.02199718	0.13303790	0.06095727	-0.53049474	-0.18442149	-0.02239533	-0.41718445	-0.27691134	-0.35923938	-0.14743339	0.75010439	-0.45492176	0.27854222	0.02173253	-0.01149432	-0.03946147	0.31464671	0.00991915	-0.54414157
1495	14.94000000	0.11516515	0.09091349	0.00561856	0.20788998	-0.05401732	0.02370498	0.16020277	0.09758579	-0.57478369	-0.24443686	-0.01438975	-0.40742909	-0.18249448	-0.44510283	0.25069508	0.65097783	-0.47511087	0.22655319	0.03022221	-0.00817605	-0.04035457	0.12732095	-0.03920124	-0.32210347
1496	14.95000000	0.14855675	0.11205185	0.00765407	0.22253023	-0.06394530	0.02384955	0.16201761	0.12280968	-0.59399679	-0.27273413	-0.00649991	-0.39749034	0.01990796	-0.48996297	0.59441794	0.51816745	-0.52143455	0.15913351	0.03348578	-0.03089959	-0.04383912	-2.92187830	-0.35278545	-0.56044649
1497	14.96000000	0.17104654	0.12620701	0.01680894	0.22735703	-0.06601051	0.01722833	0.15987265	0.13537364	-0.59994536	-0.27435848	0.00598093	-0.38573985	0.36344325	-0.43379775	0.74809197	0.39853921	-0.60957926	0.09447595	0.01801984	-0.02690935	-0.03188466	-1.71273118	-0.67584233	-0.89443957
1498	14.97000000	0.18233843	0.12328926	0.03171872	0.22827071	-0.06311085	0.00379413	0.18316018	0.16394692	-0.62935985	-0.23279341	0.01226337	-0.35556561	0.37198493	-0.24577047	0.67188741	0.35218855	-0.70009910	0.05454814	-0.00753375	-0.03755423	-0.02240564	2.47402064	0.02491822	-0.98999054
1499	14.98000000	0.18922395	0.12569313	0.04829308	0.23009190	-0.07286318	-0.01715026	0.19064789	0.18640736	-0.68942119	-0.16750988	0.00113805	-0.35099007	0.02241020	-0.06008431	0.43085280	0.40656721	-0.76688874	0.06888409	-0.02451798	-0.05859286	-0.02490615	-0.86717049	-0.35518371	-0.78801290
1500	14.99000000	0.20970800	0.12717795	0.05873222	0.22374149	-0.07367608	-0.04707114	0.12146581	0.18106311	-0.71277279	-0.10274559	-0.01750969	-0.35606932	-0.57349442	-0.00748541	-0.05542276	0.52366684	-0.77425007	0.10165366	0.00330715	-0.07432642	-0.02537844	-2.13969257	-0.59354198	-0.39684847
1501	15.00000000	0.23514853	0.12289533	0.05419038	0.21298178	-0.08631047	-0.07666332	0.06910541	0.16700248	-0.70102333	-0.04978415	-0.03834627	-0.34723686	-1.50155144	-0.06046920	-0.43196915	0.67415406	-0.71518157	0.11268815	-0.03558678	-0.07372856	-0.01936577	-0.05681684	-0.86578755	-0.22866616
